<svg id="Layer_1" data-name="Layer 1" xmlns="http://www.w3.org/2000/svg" viewBox="0 0 1564.57 419.78"><defs><style>.cls-1{fill:#00b2d6}</style></defs><title>skyscanner-RGB-logo-loch-strapline-EN</title><path class="cls-1" d="M156.17 546H134v-7.79h53.56V546h-22.15v65.25h-9.24zm41.76-14.07h9.13v21.6l-.33 11.14c5.12-4.9 10.58-8.91 18-8.91 11.36 0 16.48 7.35 16.48 21.16v34.29h-9.13v-33.07c0-10.13-3.12-14.47-10.24-14.47-5.57 0-9.35 2.89-14.81 8.35v39.19h-9.13zm79.29 23.83c13.81 0 21.6 9.91 21.6 25.39a32.34 32.34 0 0 1-.33 5H262c.67 11.69 7.68 19 18 19a24.45 24.45 0 0 0 13.48-4.15l3.23 6a32.22 32.22 0 0 1-17.82 5.57c-14.47 0-25.94-10.58-25.94-28.28s11.91-28.53 24.27-28.53zm13.58 24.38c0-11-4.9-17.15-13.36-17.15-7.57 0-14.47 6.24-15.59 17.15zm34.2-23.05h9.35l8 31.29c1.23 5.12 2.23 10 3.23 15h.42c1.22-5 2.34-10 3.67-15l8.35-31.29H367l8.46 31.29c1.34 5.12 2.56 10 3.79 15h.44c1.23-5 2.23-9.91 3.34-15l7.91-31.29h8.69l-14.48 54.12H374l-7.79-29.06c-1.34-5.12-2.34-10.13-3.67-15.59h-.44c-1.23 5.46-2.34 10.58-3.79 15.7l-7.57 28.95H340zm105.46-1.33c13.25 0 25.05 10.35 25.05 28.5 0 17.93-11.8 28.28-25.05 28.28s-25.05-10.36-25.05-28.28c-.01-18.15 11.8-28.5 25.05-28.5zm0 49.22c9.35 0 15.59-8.35 15.59-20.71s-6.24-20.93-15.59-20.93-15.59 8.46-15.59 20.93S421.22 605 430.46 605zm37.75-47.89h7.57l.78 9.8h.33c3.67-6.79 9.24-11.13 15.37-11.13a13.44 13.44 0 0 1 5.79 1.11l-1.78 8A15.14 15.14 0 0 0 491 564c-4.56 0-10 3.34-13.7 12.47v34.74h-9.13zm37.08-25.16h9.13v69c0 2.9 1.23 4 2.56 4a7.69 7.69 0 0 0 2-.22l1.22 6.9a12.28 12.28 0 0 1-5.23.89c-6.9 0-9.69-4.34-9.69-12.25zm46.44 23.83c6.24 0 10.36 2.34 15.14 6.24l-.44-9.24v-20.83h9.24v79.28h-7.57l-.78-6.35H567c-4.23 4.12-10 7.68-16.37 7.68-13.58 0-22.38-10.24-22.38-28.28-.01-17.59 11.12-28.5 23.48-28.5zm.89 49.1c5 0 9.35-2.45 13.81-7.46v-28.28c-4.56-4.12-8.69-5.68-13.14-5.68-8.69 0-15.59 8.35-15.59 20.71 0 12.92 5.46 20.71 14.92 20.71zM590.16 559c5.57-3.67 8.35-7.46 8.35-13.92a2.45 2.45 0 0 1-.89.11c-3.12 0-5.9-2-5.9-5.57 0-3.9 2.45-6.24 5.9-6.24 4.34 0 7 3.67 7 10.13 0 8.91-4.23 15.25-11.91 19.71zm21.38 40c4.68 3.79 9.46 6.46 15.92 6.46 7.13 0 10.69-3.79 10.69-8.46 0-5.57-6.46-8-12.36-10.24-7.68-2.78-16.15-6.46-16.15-15.59 0-8.69 6.9-15.37 18.6-15.37a27 27 0 0 1 16.81 6.12l-4.34 5.79c-3.67-2.78-7.57-4.79-12.36-4.79-6.79 0-9.91 3.67-9.91 7.79 0 5 5.9 7 12 9.35 7.79 2.89 16.48 6.12 16.48 16.37 0 8.8-7 16.15-19.82 16.15a32.57 32.57 0 0 1-20.1-7.5zm69.04-34.45h-8v-6.9l8.46-.56 1.1-15.09h7.68v15.14h14.59v7.46h-14.59v30.06c0 6.68 2.12 10.47 8.35 10.47a19.69 19.69 0 0 0 6.12-1.45l1.78 6.9a33.42 33.42 0 0 1-10 2c-11.58 0-15.48-7.35-15.48-18zm34.42-7.46h7.57l.78 9.8h.33c3.67-6.79 9.24-11.13 15.37-11.13a13.44 13.44 0 0 1 5.79 1.11l-1.78 8a15.14 15.14 0 0 0-5.23-.89c-4.57 0-10 3.34-13.7 12.47v34.74H715zm64.92 19.82c0-6.9-2.34-13.59-11.14-13.59-6.35 0-11.91 2.9-16.15 5.79l-3.63-6.34c5-3.23 12.58-7 21.27-7 13.25 0 18.82 8.8 18.82 22.27v33.18h-7.57l-.78-6.46h-.22c-5.23 4.23-11.25 7.79-17.93 7.79-9.13 0-15.92-5.68-15.92-15.37-.05-11.8 10.2-17.71 33.25-20.27zm-14.81 28.29c5.23 0 9.58-2.56 14.81-7.24v-15c-18.15 2.23-24.27 6.68-24.27 13.59-.01 6.08 4.11 8.65 9.46 8.65zm31.74-48.11h9.46l10.24 30.73c1.56 5.34 3.34 10.8 5 15.92h.45c1.56-5.12 3.34-10.58 4.9-15.92l10.24-30.73h9L827 611.21h-10.67zm78.06-1.33c13.81 0 21.6 9.91 21.6 25.39a31.93 31.93 0 0 1-.34 5h-36.52c.67 11.69 7.68 19 18 19a24.46 24.46 0 0 0 13.52-4.15l3.23 6a32.21 32.21 0 0 1-17.82 5.57c-14.47 0-25.94-10.58-25.94-28.28s11.91-28.53 24.27-28.53zm13.59 24.38c0-11-4.9-17.15-13.36-17.15-7.57 0-14.48 6.24-15.59 17.15zm19.82-48.21h9.13v69c0 2.9 1.23 4 2.56 4a7.69 7.69 0 0 0 2-.22l1.22 6.9a12.26 12.26 0 0 1-5.23.89c-6.9 0-9.69-4.34-9.69-12.25zM954.65 599c4.68 3.79 9.47 6.46 15.92 6.46 7.13 0 10.69-3.79 10.69-8.46 0-5.57-6.46-8-12.36-10.24-7.68-2.78-16.15-6.46-16.15-15.59 0-8.69 6.9-15.37 18.6-15.37a27 27 0 0 1 16.81 6.12l-4.34 5.79c-3.67-2.78-7.57-4.79-12.36-4.79-6.79 0-9.91 3.67-9.91 7.79 0 5 5.9 7 12 9.35 7.79 2.89 16.48 6.12 16.48 16.37 0 8.8-7 16.15-19.82 16.15a32.57 32.57 0 0 1-20.15-7.46zm66.81-43.24c13.81 0 21.6 9.91 21.6 25.39a31.92 31.92 0 0 1-.34 5h-36.52c.67 11.69 7.68 19 18 19a24.46 24.46 0 0 0 13.47-4.23l3.23 6a32.21 32.21 0 0 1-17.82 5.57c-14.47 0-25.94-10.58-25.94-28.28s11.97-28.45 24.32-28.45zm13.54 24.38c0-11-4.9-17.15-13.36-17.15-7.57 0-14.48 6.24-15.59 17.15zm48.94-3.23c0-6.9-2.34-13.59-11.13-13.59-6.35 0-11.92 2.9-16.15 5.79l-3.67-6.35c5-3.23 12.58-7 21.27-7 13.25 0 18.82 8.8 18.82 22.27v33.18h-7.57l-.78-6.46h-.22c-5.23 4.23-11.25 7.79-17.93 7.79-9.13 0-15.92-5.68-15.92-15.37-.01-11.79 10.23-17.7 33.28-20.26zm-14.81 28.28c5.23 0 9.57-2.56 14.81-7.24v-15c-18.15 2.23-24.27 6.68-24.27 13.59-.01 6.09 4.11 8.66 9.46 8.66zm39.53-48.1h7.57l.78 9.8h.33c3.67-6.79 9.24-11.13 15.37-11.13a13.44 13.44 0 0 1 5.79 1.11l-1.78 8a15.14 15.14 0 0 0-5.23-.89c-4.57 0-10 3.34-13.7 12.47v34.74h-9.13zm58.02-1.33a22.31 22.31 0 0 1 15.81 6.46l-4.56 5.9c-3.23-2.79-6.57-4.79-10.91-4.79-9.8 0-16.93 8.46-16.93 20.93s6.79 20.71 16.7 20.71c5.12 0 9.46-2.56 12.69-5.46l4.12 6a26.8 26.8 0 0 1-17.59 7c-14.36 0-25.39-10.36-25.39-28.28.01-18.12 12.15-28.47 26.06-28.47zm27.07-23.83h9.13v21.6l-.33 11.14c5.12-4.9 10.58-8.91 18-8.91 11.36 0 16.48 7.35 16.48 21.16v34.29h-9.13v-33.07c0-10.13-3.12-14.47-10.24-14.47-5.57 0-9.36 2.89-14.81 8.35v39.19h-9.13zm100.11 23.83c13.81 0 21.6 9.91 21.6 25.39a31.93 31.93 0 0 1-.34 5h-36.52c.67 11.69 7.68 19 18 19a24.46 24.46 0 0 0 13.47-4.23l3.23 6a32.21 32.21 0 0 1-17.82 5.57c-14.47 0-25.94-10.58-25.94-28.28s11.96-28.45 24.32-28.45zm13.59 24.38c0-11-4.9-17.15-13.36-17.15-7.57 0-14.48 6.24-15.59 17.15zm19.82-23.05h7.57l.78 7.79h.33c5.12-5.12 10.69-9.13 18.15-9.13 11.36 0 16.48 7.35 16.48 21.16v34.29h-9.13v-33.06c0-10.13-3.12-14.47-10.24-14.47-5.57 0-9.36 2.89-14.81 8.35v39.19h-9.13zm63.03 52.23v-.45a10 10 0 0 1-4.79-8.8c0-4.57 3.12-8.13 5.9-10v-.44a19.16 19.16 0 0 1-7-14.59c0-11.8 9.35-19.26 20.38-19.26a21.61 21.61 0 0 1 7.68 1.34h18.82v7h-11.13a15.7 15.7 0 0 1 4.46 11.14c0 11.58-8.8 18.82-19.82 18.82a18.91 18.91 0 0 1-8.13-1.89c-1.89 1.67-3.45 3.45-3.45 6.46 0 3.45 2.23 5.9 9.57 5.9h10.47c12.58 0 18.93 3.9 18.93 12.92 0 10-10.58 18.71-27.39 18.71-13.25 0-22.38-5.23-22.38-14.59-.02-4.59 2.99-8.93 7.88-12.27zm15.81 20.49c10.36 0 17.15-5.34 17.15-11 0-5-3.9-6.68-10.91-6.68H1403a26.35 26.35 0 0 1-7-.89c-3.9 2.78-5.57 6-5.57 9.13-.01 5.76 5.89 9.43 15.69 9.43zm10.14-54.81c0-7.91-5.12-12.58-11.47-12.58s-11.47 4.68-11.47 12.58 5.23 12.92 11.47 12.92 11.47-4.99 11.47-12.92zm23.17-34.94c0-3.56 2.79-5.9 6.35-5.9s6.35 2.34 6.35 5.9-2.78 5.9-6.35 5.9-6.35-2.45-6.35-5.9zm1.67 17h9.13v54.12h-9.13zm25.83.03h7.57l.78 7.79h.33c5.12-5.12 10.69-9.13 18.15-9.13 11.36 0 16.48 7.35 16.48 21.16v34.29h-9.13v-33.06c0-10.13-3.12-14.47-10.24-14.47-5.57 0-9.36 2.89-14.81 8.35v39.19h-9.13zm79.63-1.33c13.81 0 21.6 9.91 21.6 25.39a31.93 31.93 0 0 1-.34 5h-36.52c.67 11.69 7.68 19 18 19a24.46 24.46 0 0 0 13.47-4.23l3.23 6a32.21 32.21 0 0 1-17.82 5.57c-14.47 0-25.94-10.58-25.94-28.28s11.96-28.45 24.32-28.45zm13.59 24.38c0-11-4.9-17.15-13.36-17.15-7.57 0-14.48 6.24-15.59 17.15zm-969.88-258.7a4.3 4.3 0 0 1-5.69 2.72c-7.21-2.78-15.37-4.77-23-4.77-13.14 0-25.51 4-25.51 17.1 0 7.1 4 10.78 16.58 14.73l9.2 2.88c18.41 5.77 26.3 14.2 26.3 30.49 0 28.12-19.73 47.33-55.47 47.33a109.6 109.6 0 0 1-36.25-5.76 5 5 0 0 1-2.93-6.14l4.21-14.59a4.26 4.26 0 0 1 5.74-2.62c9.2 3.72 19.41 6.24 28.45 6.24 16 0 27.34-5.53 27.34-18.41 0-7.62-5.26-10.51-17.09-14.2l-10-3.15c-17.63-5.79-25.51-16.31-25.51-33.13 0-28.66 23.94-44.16 55.49-44.16a95.15 95.15 0 0 1 29.37 5.23 4.9 4.9 0 0 1 2.94 6.14zm62.14-75.05a3.9 3.9 0 0 1 3.82 4.64L636.87 351a238.52 238.52 0 0 0 48.23-47 9.46 9.46 0 0 1 7.5-3.68h21.05a2.48 2.48 0 0 1 2 3.94c-13.83 19.52-29.67 37.53-46.43 52.06l26.66 67.12a3.23 3.23 0 0 1-3 4.41h-22.36a6.81 6.81 0 0 1-6.36-4.44l-18.35-50c-5.52 3.68-10.78 6.84-15.25 9.21l-7.79 40.58a5.75 5.75 0 0 1-5.61 4.65h-19.21a3.9 3.9 0 0 1-3.82-4.65L627.55 251a5.72 5.72 0 0 1 5.63-4.64zm98.35 53.9a3.9 3.9 0 0 1 3.83 4.66l-13 67.13a87 87 0 0 0-2.11 17.36c0 7.88 4.47 13.15 15 13.15 10.26 0 22.34-4.47 31.29-12.88l16.71-84.77a5.76 5.76 0 0 1 5.63-4.64h19.22a3.89 3.89 0 0 1 3.8 4.66l-17.22 88.43c-2.1 10.24-4.47 21.82-6.57 31-10 41.54-28.92 59.94-66.79 59.94a93.77 93.77 0 0 1-23.86-3 5.11 5.11 0 0 1-3.68-6.09l3.29-13.43a4.59 4.59 0 0 1 5.49-3.44 77.87 77.87 0 0 0 17.44 2.26c22.36 0 35.49-9.47 40.22-35.23l1.85-9.74a60.35 60.35 0 0 1-37.86 13.94c-22.09 0-33.92-11-33.92-28.66 0-10.52 2.1-22.09 4.47-34.17l12-61.88a5.76 5.76 0 0 1 5.63-4.66zm173.48 21.25a4.3 4.3 0 0 1-5.69 2.72c-7.2-2.78-15.38-4.77-23-4.77-13.13 0-25.49 4-25.49 17.1 0 7.1 3.93 10.78 16.55 14.73l9.2 2.88c18.4 5.77 26.29 14.2 26.29 30.49 0 28.12-19.73 47.33-55.47 47.33a109.54 109.54 0 0 1-36.24-5.76 5 5 0 0 1-3-6.14l4.22-14.59a4.26 4.26 0 0 1 5.74-2.62c9.19 3.72 19.4 6.24 28.43 6.24 16 0 27.35-5.53 27.35-18.41 0-7.62-5.25-10.51-17.08-14.2l-10-3.15c-17.6-5.79-25.49-16.31-25.49-33.13 0-28.66 23.93-44.16 55.49-44.16a95.2 95.2 0 0 1 29.37 5.23 4.93 4.93 0 0 1 2.93 6.14zm112.22 2.87a3.92 3.92 0 0 1-5.47 2.41 56.25 56.25 0 0 0-23.68-5c-27.86 0-44.71 23.94-44.71 54.43.27 18.15 6.85 30.25 27.36 30.51a79.11 79.11 0 0 0 27.13-4.56 3 3 0 0 1 4.14 3l-1.81 15.32a7.77 7.77 0 0 1-5.15 6.46 95.2 95.2 0 0 1-31.68 5.02c-34.19 0-50.22-19.45-50.22-51.54 0-45.47 25.77-84.38 75.19-84.38a76.51 76.51 0 0 1 30.33 5.77 5.56 5.56 0 0 1 3.09 6.65zm71.28 41.89c-26.55 0-46 8.67-46 27.86 0 8.43 5 13.68 16.31 13.68 10.77 0 22.09-5.53 29.17-12.89l5.79-28.65zm-50.34-56.54a6.84 6.84 0 0 1 4.6-6.33c12.59-4.2 28.49-7.32 42.31-7.32 26.29 0 43.38 7.88 43.38 30.75a86.53 86.53 0 0 1-2.1 16.82l-10.24 53.9c-1.59 8.09-.8 12.61 2.69 14.38 2.14 1.08 3.94 3.14 3.46 5.5L1140 425a7.58 7.58 0 0 1-5.72 6 47.05 47.05 0 0 1-9.41 1c-11.84 0-17.62-5.53-18.4-15.25h-.79c-8.68 9.47-21.82 15.25-37.34 15.25-22.34 0-36.8-11.3-36.8-33.91 0-30.51 24.19-52.32 78.36-52.32h7.11a60.84 60.84 0 0 0 1.29-10.78c0-10.52-5.26-15.25-21.82-15.25-10.53 0-23.16 2.51-35.08 6.57a3.22 3.22 0 0 1-4.25-3.13zm139.74-9.47a4.3 4.3 0 0 1 4.28 4.72l-.86 9h.25c12.88-10.78 29.46-17.87 45.49-17.87 20 0 33.12 11.56 33.12 30 0 8.93-1.3 16.29-2.88 24.7l-13.83 72.4a5.76 5.76 0 0 1-5.62 4.65h-19.22a3.88 3.88 0 0 1-3.81-4.65l12.75-66.09c1.33-6.57 2.38-13.94 2.38-18.4 0-9.73-5.27-14.72-16.31-14.72-12.08 0-25.77 6.29-35.49 15.5l-15.94 83.71a5.72 5.72 0 0 1-5.6 4.65h-19.21a3.89 3.89 0 0 1-3.84-4.65l22.66-118.23a5.72 5.72 0 0 1 5.61-4.66zm130.16 0a4.31 4.31 0 0 1 4.28 4.72l-.87 9h.26c12.89-10.78 29.44-17.87 45.48-17.87 20 0 33.14 11.56 33.14 30 0 8.93-1.33 16.29-2.89 24.7l-13.83 72.4a5.75 5.75 0 0 1-5.62 4.65H1368a3.92 3.92 0 0 1-3.84-4.65l12.84-66.15c1.31-6.57 2.37-13.94 2.37-18.4 0-9.73-5.27-14.72-16.31-14.72-12.08 0-25.75 6.29-35.49 15.5l-15.93 83.71a5.74 5.74 0 0 1-5.62 4.65h-19.22a3.91 3.91 0 0 1-3.84-4.65l22.68-118.23a5.72 5.72 0 0 1 5.62-4.66zm178.24 55.22a61.6 61.6 0 0 0 2.1-15.25c0-11.83-5.25-20.24-18.66-20.24-19.46 0-31.3 14.2-35.5 35.5zm-55.2 20.77a41.26 41.26 0 0 0 .26 11.57c2.37 12.88 12.35 19.19 29.18 19.19a117.87 117.87 0 0 0 34.9-5.25 3 3 0 0 1 4 3.11l-1.76 14.55a7.54 7.54 0 0 1-4.86 6.32 118 118 0 0 1-38 6.25c-36.28 0-53.9-15.51-53.9-50.73 0-30.51 10-58.63 31.56-73.63 10.78-7.63 24.19-11.56 41-11.56 30.51 0 43.91 17.34 43.91 43.12a169.56 169.56 0 0 1-3.51 32.67 5.69 5.69 0 0 1-5.68 4.39zm133.32-75.99A4.41 4.41 0 0 1 1588 305l-.73 10.27h.52a48.88 48.88 0 0 1 37.34-17.88c1.48 0 2.74 0 3.82.12a3.86 3.86 0 0 1 3.17 5.19l-5.32 17a6.8 6.8 0 0 1-6.32 4.56c-13.29.58-26.12 4.37-34.79 10.47l-17 88.43a5.75 5.75 0 0 1-5.62 4.65h-19.22a3.9 3.9 0 0 1-3.83-4.65l22.67-118.23a5.73 5.73 0 0 1 5.6-4.66zM150.13 348.27c0-.21 0-.3 0 0m0 0c0 .19 0 .44.06.59 0-.28 0-.47-.06-.59m45.15 106.35C195.28 344.13 280 253.44 388 244a92.67 92.67 0 0 0-158 54.19 52.2 52.2 0 0 0-27.82-8c-28.95 0-55.32 29-52 58.84A56.3 56.3 0 1 0 116 454.56a37.35 37.35 0 0 0 6.57.59h72.76v-.54m254.36-42.43a59.66 59.66 0 0 0-41.08-17.51h-3.16a59.79 59.79 0 0 0-58.57 60.48h30.08c2-10 3.79-15.13 9.52-20.86a29.69 29.69 0 0 1 41.09 0 28.21 28.21 0 0 1 4.78 6.47 75.13 75.13 0 0 0 21.23-24.25 62.94 62.94 0 0 0-3.9-4.31M150.22 349a.52.52 0 0 0 0-.13v.13M463 385.59q.34-3.68.34-7.44a76.23 76.23 0 0 0-7.61-33.29A120.11 120.11 0 0 0 286.8 455.15h31.33A88.33 88.33 0 0 1 405.4 366h3.16A88.47 88.47 0 0 1 463 385.59m-184.93-59.7A181.4 181.4 0 0 1 407 272.65h.37a92.27 92.27 0 0 1 7.26 31.35q-3.71-.18-7.45-.18h-.4A150.78 150.78 0 0 0 256 454.62v.54h-31.2a181.45 181.45 0 0 1 53.27-129.27" transform="translate(-67.8 -216.37)"/></svg>